<mxfile host="app.diagrams.net" modified="2020-10-03T18:30:18.104Z" agent="5.0 (Macintosh; Intel Mac OS X 10_15_7) AppleWebKit/605.1.15 (KHTML, like Gecko) Version/14.0 Safari/605.1.15" etag="wny6uStxhFrS9yU91pYs" version="13.7.7" type="github">
  <diagram id="C5RBs43oDa-KdzZeNtuy" name="Page-1">
    <mxGraphModel dx="946" dy="590" grid="1" gridSize="10" guides="1" tooltips="1" connect="1" arrows="1" fold="1" page="1" pageScale="1" pageWidth="827" pageHeight="1169" math="0" shadow="0">
      <root>
        <mxCell id="WIyWlLk6GJQsqaUBKTNV-0" />
        <mxCell id="WIyWlLk6GJQsqaUBKTNV-1" parent="WIyWlLk6GJQsqaUBKTNV-0" />
        <mxCell id="WIyWlLk6GJQsqaUBKTNV-2" value="" style="rounded=0;html=1;jettySize=auto;orthogonalLoop=1;fontSize=11;endArrow=block;endFill=0;endSize=8;strokeWidth=1;shadow=0;labelBackgroundColor=none;edgeStyle=orthogonalEdgeStyle;" parent="WIyWlLk6GJQsqaUBKTNV-1" source="WIyWlLk6GJQsqaUBKTNV-3" target="WIyWlLk6GJQsqaUBKTNV-6" edge="1">
          <mxGeometry relative="1" as="geometry" />
        </mxCell>
        <mxCell id="WIyWlLk6GJQsqaUBKTNV-3" value="读字符" style="rounded=1;whiteSpace=wrap;html=1;fontSize=12;glass=0;strokeWidth=1;shadow=0;" parent="WIyWlLk6GJQsqaUBKTNV-1" vertex="1">
          <mxGeometry x="127" y="80" width="120" height="40" as="geometry" />
        </mxCell>
        <mxCell id="iqQF5zhkwubuDFz2M-Ki-2" style="edgeStyle=orthogonalEdgeStyle;rounded=0;orthogonalLoop=1;jettySize=auto;html=1;exitX=0;exitY=0.5;exitDx=0;exitDy=0;entryX=0.5;entryY=0;entryDx=0;entryDy=0;" edge="1" parent="WIyWlLk6GJQsqaUBKTNV-1" source="WIyWlLk6GJQsqaUBKTNV-6" target="WIyWlLk6GJQsqaUBKTNV-3">
          <mxGeometry relative="1" as="geometry">
            <mxPoint x="87" y="40" as="targetPoint" />
            <Array as="points">
              <mxPoint x="97" y="200" />
              <mxPoint x="97" y="60" />
              <mxPoint x="187" y="60" />
            </Array>
          </mxGeometry>
        </mxCell>
        <mxCell id="iqQF5zhkwubuDFz2M-Ki-14" style="edgeStyle=orthogonalEdgeStyle;rounded=0;orthogonalLoop=1;jettySize=auto;html=1;exitX=0.5;exitY=1;exitDx=0;exitDy=0;entryX=0.5;entryY=0;entryDx=0;entryDy=0;" edge="1" parent="WIyWlLk6GJQsqaUBKTNV-1" source="WIyWlLk6GJQsqaUBKTNV-6" target="iqQF5zhkwubuDFz2M-Ki-8">
          <mxGeometry relative="1" as="geometry" />
        </mxCell>
        <mxCell id="WIyWlLk6GJQsqaUBKTNV-6" value="是空字符或换行符" style="rhombus;whiteSpace=wrap;html=1;shadow=0;fontFamily=Helvetica;fontSize=12;align=center;strokeWidth=1;spacing=6;spacingTop=-4;" parent="WIyWlLk6GJQsqaUBKTNV-1" vertex="1">
          <mxGeometry x="117" y="160" width="140" height="80" as="geometry" />
        </mxCell>
        <mxCell id="iqQF5zhkwubuDFz2M-Ki-3" value="Yes" style="text;html=1;strokeColor=none;fillColor=none;align=center;verticalAlign=middle;whiteSpace=wrap;rounded=0;" vertex="1" parent="WIyWlLk6GJQsqaUBKTNV-1">
          <mxGeometry x="57" y="130" width="40" height="20" as="geometry" />
        </mxCell>
        <mxCell id="iqQF5zhkwubuDFz2M-Ki-7" value="No" style="text;html=1;strokeColor=none;fillColor=none;align=center;verticalAlign=middle;whiteSpace=wrap;rounded=0;" vertex="1" parent="WIyWlLk6GJQsqaUBKTNV-1">
          <mxGeometry x="147" y="240" width="40" height="20" as="geometry" />
        </mxCell>
        <mxCell id="iqQF5zhkwubuDFz2M-Ki-13" style="edgeStyle=orthogonalEdgeStyle;rounded=0;orthogonalLoop=1;jettySize=auto;html=1;exitX=0.5;exitY=1;exitDx=0;exitDy=0;entryX=0.5;entryY=0;entryDx=0;entryDy=0;" edge="1" parent="WIyWlLk6GJQsqaUBKTNV-1" source="iqQF5zhkwubuDFz2M-Ki-8" target="iqQF5zhkwubuDFz2M-Ki-10">
          <mxGeometry relative="1" as="geometry" />
        </mxCell>
        <mxCell id="iqQF5zhkwubuDFz2M-Ki-8" value="" style="rounded=0;whiteSpace=wrap;html=1;" vertex="1" parent="WIyWlLk6GJQsqaUBKTNV-1">
          <mxGeometry x="127" y="280" width="120" height="60" as="geometry" />
        </mxCell>
        <mxCell id="iqQF5zhkwubuDFz2M-Ki-9" value="TokenBuf:=&#39;&#39;" style="text;html=1;strokeColor=none;fillColor=none;align=center;verticalAlign=middle;whiteSpace=wrap;rounded=0;" vertex="1" parent="WIyWlLk6GJQsqaUBKTNV-1">
          <mxGeometry x="167" y="300" width="40" height="20" as="geometry" />
        </mxCell>
        <mxCell id="iqQF5zhkwubuDFz2M-Ki-17" style="edgeStyle=orthogonalEdgeStyle;rounded=0;orthogonalLoop=1;jettySize=auto;html=1;exitX=1;exitY=0.5;exitDx=0;exitDy=0;entryX=0;entryY=0.5;entryDx=0;entryDy=0;" edge="1" parent="WIyWlLk6GJQsqaUBKTNV-1" source="iqQF5zhkwubuDFz2M-Ki-10" target="iqQF5zhkwubuDFz2M-Ki-15">
          <mxGeometry relative="1" as="geometry" />
        </mxCell>
        <mxCell id="iqQF5zhkwubuDFz2M-Ki-34" style="edgeStyle=orthogonalEdgeStyle;rounded=0;orthogonalLoop=1;jettySize=auto;html=1;exitX=0.5;exitY=1;exitDx=0;exitDy=0;entryX=0.5;entryY=0;entryDx=0;entryDy=0;" edge="1" parent="WIyWlLk6GJQsqaUBKTNV-1" source="iqQF5zhkwubuDFz2M-Ki-10" target="iqQF5zhkwubuDFz2M-Ki-32">
          <mxGeometry relative="1" as="geometry" />
        </mxCell>
        <mxCell id="iqQF5zhkwubuDFz2M-Ki-10" value="" style="rhombus;whiteSpace=wrap;html=1;" vertex="1" parent="WIyWlLk6GJQsqaUBKTNV-1">
          <mxGeometry x="127" y="380" width="120" height="80" as="geometry" />
        </mxCell>
        <mxCell id="iqQF5zhkwubuDFz2M-Ki-11" value="是字母？" style="text;html=1;strokeColor=none;fillColor=none;align=center;verticalAlign=middle;whiteSpace=wrap;rounded=0;" vertex="1" parent="WIyWlLk6GJQsqaUBKTNV-1">
          <mxGeometry x="167" y="410" width="50" height="20" as="geometry" />
        </mxCell>
        <mxCell id="iqQF5zhkwubuDFz2M-Ki-21" style="edgeStyle=orthogonalEdgeStyle;rounded=0;orthogonalLoop=1;jettySize=auto;html=1;exitX=1;exitY=0.5;exitDx=0;exitDy=0;entryX=0;entryY=0.5;entryDx=0;entryDy=0;" edge="1" parent="WIyWlLk6GJQsqaUBKTNV-1" source="iqQF5zhkwubuDFz2M-Ki-15">
          <mxGeometry relative="1" as="geometry">
            <mxPoint x="437" y="420" as="targetPoint" />
          </mxGeometry>
        </mxCell>
        <mxCell id="iqQF5zhkwubuDFz2M-Ki-15" value="" style="rounded=0;whiteSpace=wrap;html=1;" vertex="1" parent="WIyWlLk6GJQsqaUBKTNV-1">
          <mxGeometry x="287" y="390" width="100" height="60" as="geometry" />
        </mxCell>
        <mxCell id="iqQF5zhkwubuDFz2M-Ki-16" value="组合标识符" style="text;html=1;strokeColor=none;fillColor=none;align=center;verticalAlign=middle;whiteSpace=wrap;rounded=0;" vertex="1" parent="WIyWlLk6GJQsqaUBKTNV-1">
          <mxGeometry x="291" y="410" width="90" height="20" as="geometry" />
        </mxCell>
        <mxCell id="iqQF5zhkwubuDFz2M-Ki-18" value="Yes" style="text;html=1;strokeColor=none;fillColor=none;align=center;verticalAlign=middle;whiteSpace=wrap;rounded=0;" vertex="1" parent="WIyWlLk6GJQsqaUBKTNV-1">
          <mxGeometry x="243" y="396" width="40" height="20" as="geometry" />
        </mxCell>
        <mxCell id="iqQF5zhkwubuDFz2M-Ki-28" style="edgeStyle=orthogonalEdgeStyle;rounded=0;orthogonalLoop=1;jettySize=auto;html=1;exitX=1;exitY=0.5;exitDx=0;exitDy=0;entryX=0;entryY=0.5;entryDx=0;entryDy=0;" edge="1" parent="WIyWlLk6GJQsqaUBKTNV-1" source="iqQF5zhkwubuDFz2M-Ki-22" target="iqQF5zhkwubuDFz2M-Ki-24">
          <mxGeometry relative="1" as="geometry" />
        </mxCell>
        <mxCell id="iqQF5zhkwubuDFz2M-Ki-29" style="edgeStyle=orthogonalEdgeStyle;rounded=0;orthogonalLoop=1;jettySize=auto;html=1;exitX=0.5;exitY=0;exitDx=0;exitDy=0;entryX=0.5;entryY=1;entryDx=0;entryDy=0;" edge="1" parent="WIyWlLk6GJQsqaUBKTNV-1" source="iqQF5zhkwubuDFz2M-Ki-22" target="iqQF5zhkwubuDFz2M-Ki-26">
          <mxGeometry relative="1" as="geometry" />
        </mxCell>
        <mxCell id="iqQF5zhkwubuDFz2M-Ki-22" value="" style="rhombus;whiteSpace=wrap;html=1;" vertex="1" parent="WIyWlLk6GJQsqaUBKTNV-1">
          <mxGeometry x="437" y="380" width="80" height="80" as="geometry" />
        </mxCell>
        <mxCell id="iqQF5zhkwubuDFz2M-Ki-23" value="是保留字？" style="text;html=1;strokeColor=none;fillColor=none;align=center;verticalAlign=middle;whiteSpace=wrap;rounded=0;" vertex="1" parent="WIyWlLk6GJQsqaUBKTNV-1">
          <mxGeometry x="457" y="410" width="40" height="20" as="geometry" />
        </mxCell>
        <mxCell id="iqQF5zhkwubuDFz2M-Ki-24" value="" style="rounded=0;whiteSpace=wrap;html=1;" vertex="1" parent="WIyWlLk6GJQsqaUBKTNV-1">
          <mxGeometry x="557" y="390" width="100" height="60" as="geometry" />
        </mxCell>
        <mxCell id="iqQF5zhkwubuDFz2M-Ki-25" value="输出标识符" style="text;html=1;strokeColor=none;fillColor=none;align=center;verticalAlign=middle;whiteSpace=wrap;rounded=0;" vertex="1" parent="WIyWlLk6GJQsqaUBKTNV-1">
          <mxGeometry x="572" y="410" width="70" height="20" as="geometry" />
        </mxCell>
        <mxCell id="iqQF5zhkwubuDFz2M-Ki-26" value="" style="rounded=0;whiteSpace=wrap;html=1;" vertex="1" parent="WIyWlLk6GJQsqaUBKTNV-1">
          <mxGeometry x="427" y="290" width="100" height="60" as="geometry" />
        </mxCell>
        <mxCell id="iqQF5zhkwubuDFz2M-Ki-27" value="输出保留字" style="text;html=1;strokeColor=none;fillColor=none;align=center;verticalAlign=middle;whiteSpace=wrap;rounded=0;" vertex="1" parent="WIyWlLk6GJQsqaUBKTNV-1">
          <mxGeometry x="442" y="310" width="70" height="20" as="geometry" />
        </mxCell>
        <mxCell id="iqQF5zhkwubuDFz2M-Ki-30" value="No" style="text;html=1;strokeColor=none;fillColor=none;align=center;verticalAlign=middle;whiteSpace=wrap;rounded=0;" vertex="1" parent="WIyWlLk6GJQsqaUBKTNV-1">
          <mxGeometry x="517" y="420" width="40" height="20" as="geometry" />
        </mxCell>
        <mxCell id="iqQF5zhkwubuDFz2M-Ki-31" value="Yes" style="text;html=1;strokeColor=none;fillColor=none;align=center;verticalAlign=middle;whiteSpace=wrap;rounded=0;" vertex="1" parent="WIyWlLk6GJQsqaUBKTNV-1">
          <mxGeometry x="477" y="360" width="40" height="20" as="geometry" />
        </mxCell>
        <mxCell id="iqQF5zhkwubuDFz2M-Ki-38" style="edgeStyle=orthogonalEdgeStyle;rounded=0;orthogonalLoop=1;jettySize=auto;html=1;exitX=1;exitY=0.5;exitDx=0;exitDy=0;entryX=0;entryY=0.5;entryDx=0;entryDy=0;" edge="1" parent="WIyWlLk6GJQsqaUBKTNV-1" source="iqQF5zhkwubuDFz2M-Ki-32" target="iqQF5zhkwubuDFz2M-Ki-36">
          <mxGeometry relative="1" as="geometry" />
        </mxCell>
        <mxCell id="iqQF5zhkwubuDFz2M-Ki-46" style="edgeStyle=orthogonalEdgeStyle;rounded=0;orthogonalLoop=1;jettySize=auto;html=1;exitX=0.5;exitY=1;exitDx=0;exitDy=0;entryX=0.5;entryY=0;entryDx=0;entryDy=0;" edge="1" parent="WIyWlLk6GJQsqaUBKTNV-1" source="iqQF5zhkwubuDFz2M-Ki-32" target="iqQF5zhkwubuDFz2M-Ki-43">
          <mxGeometry relative="1" as="geometry" />
        </mxCell>
        <mxCell id="iqQF5zhkwubuDFz2M-Ki-32" value="" style="rhombus;whiteSpace=wrap;html=1;" vertex="1" parent="WIyWlLk6GJQsqaUBKTNV-1">
          <mxGeometry x="127" y="490" width="120" height="80" as="geometry" />
        </mxCell>
        <mxCell id="iqQF5zhkwubuDFz2M-Ki-33" value="是数字？" style="text;html=1;strokeColor=none;fillColor=none;align=center;verticalAlign=middle;whiteSpace=wrap;rounded=0;" vertex="1" parent="WIyWlLk6GJQsqaUBKTNV-1">
          <mxGeometry x="160.5" y="520" width="53" height="20" as="geometry" />
        </mxCell>
        <mxCell id="iqQF5zhkwubuDFz2M-Ki-35" value="No" style="text;html=1;strokeColor=none;fillColor=none;align=center;verticalAlign=middle;whiteSpace=wrap;rounded=0;" vertex="1" parent="WIyWlLk6GJQsqaUBKTNV-1">
          <mxGeometry x="187" y="460" width="40" height="20" as="geometry" />
        </mxCell>
        <mxCell id="iqQF5zhkwubuDFz2M-Ki-42" style="edgeStyle=orthogonalEdgeStyle;rounded=0;orthogonalLoop=1;jettySize=auto;html=1;exitX=1;exitY=0.5;exitDx=0;exitDy=0;entryX=0;entryY=0.5;entryDx=0;entryDy=0;" edge="1" parent="WIyWlLk6GJQsqaUBKTNV-1" source="iqQF5zhkwubuDFz2M-Ki-36" target="iqQF5zhkwubuDFz2M-Ki-40">
          <mxGeometry relative="1" as="geometry" />
        </mxCell>
        <mxCell id="iqQF5zhkwubuDFz2M-Ki-36" value="" style="rounded=0;whiteSpace=wrap;html=1;" vertex="1" parent="WIyWlLk6GJQsqaUBKTNV-1">
          <mxGeometry x="285.5" y="500" width="104.5" height="60" as="geometry" />
        </mxCell>
        <mxCell id="iqQF5zhkwubuDFz2M-Ki-37" value="组合数字" style="text;html=1;strokeColor=none;fillColor=none;align=center;verticalAlign=middle;whiteSpace=wrap;rounded=0;" vertex="1" parent="WIyWlLk6GJQsqaUBKTNV-1">
          <mxGeometry x="301" y="520" width="70" height="20" as="geometry" />
        </mxCell>
        <mxCell id="iqQF5zhkwubuDFz2M-Ki-40" value="" style="rounded=0;whiteSpace=wrap;html=1;" vertex="1" parent="WIyWlLk6GJQsqaUBKTNV-1">
          <mxGeometry x="437" y="500" width="104.5" height="60" as="geometry" />
        </mxCell>
        <mxCell id="iqQF5zhkwubuDFz2M-Ki-41" value="输出常数" style="text;html=1;strokeColor=none;fillColor=none;align=center;verticalAlign=middle;whiteSpace=wrap;rounded=0;" vertex="1" parent="WIyWlLk6GJQsqaUBKTNV-1">
          <mxGeometry x="463.88" y="520" width="50.75" height="20" as="geometry" />
        </mxCell>
        <mxCell id="iqQF5zhkwubuDFz2M-Ki-52" style="edgeStyle=orthogonalEdgeStyle;rounded=0;orthogonalLoop=1;jettySize=auto;html=1;exitX=1;exitY=0.5;exitDx=0;exitDy=0;entryX=0;entryY=0.5;entryDx=0;entryDy=0;" edge="1" parent="WIyWlLk6GJQsqaUBKTNV-1" source="iqQF5zhkwubuDFz2M-Ki-43" target="iqQF5zhkwubuDFz2M-Ki-50">
          <mxGeometry relative="1" as="geometry" />
        </mxCell>
        <mxCell id="iqQF5zhkwubuDFz2M-Ki-69" style="edgeStyle=orthogonalEdgeStyle;rounded=0;orthogonalLoop=1;jettySize=auto;html=1;exitX=0.5;exitY=1;exitDx=0;exitDy=0;entryX=0.5;entryY=0;entryDx=0;entryDy=0;" edge="1" parent="WIyWlLk6GJQsqaUBKTNV-1" source="iqQF5zhkwubuDFz2M-Ki-43" target="iqQF5zhkwubuDFz2M-Ki-67">
          <mxGeometry relative="1" as="geometry" />
        </mxCell>
        <mxCell id="iqQF5zhkwubuDFz2M-Ki-43" value="" style="rhombus;whiteSpace=wrap;html=1;" vertex="1" parent="WIyWlLk6GJQsqaUBKTNV-1">
          <mxGeometry x="127" y="600" width="120" height="80" as="geometry" />
        </mxCell>
        <mxCell id="iqQF5zhkwubuDFz2M-Ki-44" value="Yes" style="text;html=1;strokeColor=none;fillColor=none;align=center;verticalAlign=middle;whiteSpace=wrap;rounded=0;" vertex="1" parent="WIyWlLk6GJQsqaUBKTNV-1">
          <mxGeometry x="243" y="510" width="40" height="20" as="geometry" />
        </mxCell>
        <mxCell id="iqQF5zhkwubuDFz2M-Ki-45" value="是单引号？" style="text;html=1;strokeColor=none;fillColor=none;align=center;verticalAlign=middle;whiteSpace=wrap;rounded=0;" vertex="1" parent="WIyWlLk6GJQsqaUBKTNV-1">
          <mxGeometry x="150.25" y="630" width="73.5" height="20" as="geometry" />
        </mxCell>
        <mxCell id="iqQF5zhkwubuDFz2M-Ki-49" value="No" style="text;html=1;strokeColor=none;fillColor=none;align=center;verticalAlign=middle;whiteSpace=wrap;rounded=0;" vertex="1" parent="WIyWlLk6GJQsqaUBKTNV-1">
          <mxGeometry x="186" y="571" width="40" height="20" as="geometry" />
        </mxCell>
        <mxCell id="iqQF5zhkwubuDFz2M-Ki-57" style="edgeStyle=orthogonalEdgeStyle;rounded=0;orthogonalLoop=1;jettySize=auto;html=1;exitX=1;exitY=0.5;exitDx=0;exitDy=0;" edge="1" parent="WIyWlLk6GJQsqaUBKTNV-1" source="iqQF5zhkwubuDFz2M-Ki-50">
          <mxGeometry relative="1" as="geometry">
            <mxPoint x="430" y="640.1428571428571" as="targetPoint" />
          </mxGeometry>
        </mxCell>
        <mxCell id="iqQF5zhkwubuDFz2M-Ki-50" value="" style="rounded=0;whiteSpace=wrap;html=1;" vertex="1" parent="WIyWlLk6GJQsqaUBKTNV-1">
          <mxGeometry x="287" y="610" width="104.5" height="60" as="geometry" />
        </mxCell>
        <mxCell id="iqQF5zhkwubuDFz2M-Ki-51" value="读字符" style="text;html=1;strokeColor=none;fillColor=none;align=center;verticalAlign=middle;whiteSpace=wrap;rounded=0;" vertex="1" parent="WIyWlLk6GJQsqaUBKTNV-1">
          <mxGeometry x="316" y="630" width="40" height="20" as="geometry" />
        </mxCell>
        <mxCell id="iqQF5zhkwubuDFz2M-Ki-58" style="edgeStyle=orthogonalEdgeStyle;rounded=0;orthogonalLoop=1;jettySize=auto;html=1;exitX=1;exitY=0.5;exitDx=0;exitDy=0;" edge="1" parent="WIyWlLk6GJQsqaUBKTNV-1" source="iqQF5zhkwubuDFz2M-Ki-53">
          <mxGeometry relative="1" as="geometry">
            <mxPoint x="590" y="640.1428571428571" as="targetPoint" />
          </mxGeometry>
        </mxCell>
        <mxCell id="iqQF5zhkwubuDFz2M-Ki-53" value="" style="rhombus;whiteSpace=wrap;html=1;" vertex="1" parent="WIyWlLk6GJQsqaUBKTNV-1">
          <mxGeometry x="432" y="600" width="118" height="80" as="geometry" />
        </mxCell>
        <mxCell id="iqQF5zhkwubuDFz2M-Ki-54" value="是+-*/或字母或数字？" style="text;html=1;strokeColor=none;fillColor=none;align=center;verticalAlign=middle;whiteSpace=wrap;rounded=0;" vertex="1" parent="WIyWlLk6GJQsqaUBKTNV-1">
          <mxGeometry x="459" y="630" width="64" height="20" as="geometry" />
        </mxCell>
        <mxCell id="iqQF5zhkwubuDFz2M-Ki-56" value="Yes" style="text;html=1;strokeColor=none;fillColor=none;align=center;verticalAlign=middle;whiteSpace=wrap;rounded=0;" vertex="1" parent="WIyWlLk6GJQsqaUBKTNV-1">
          <mxGeometry x="243" y="620" width="40" height="20" as="geometry" />
        </mxCell>
        <mxCell id="iqQF5zhkwubuDFz2M-Ki-59" style="edgeStyle=orthogonalEdgeStyle;rounded=0;orthogonalLoop=1;jettySize=auto;html=1;exitX=1;exitY=0.5;exitDx=0;exitDy=0;" edge="1" parent="WIyWlLk6GJQsqaUBKTNV-1" source="iqQF5zhkwubuDFz2M-Ki-60">
          <mxGeometry relative="1" as="geometry">
            <mxPoint x="733" y="640.1428571428571" as="targetPoint" />
          </mxGeometry>
        </mxCell>
        <mxCell id="iqQF5zhkwubuDFz2M-Ki-60" value="" style="rounded=0;whiteSpace=wrap;html=1;" vertex="1" parent="WIyWlLk6GJQsqaUBKTNV-1">
          <mxGeometry x="590" y="610" width="104.5" height="60" as="geometry" />
        </mxCell>
        <mxCell id="iqQF5zhkwubuDFz2M-Ki-61" value="读字符" style="text;html=1;strokeColor=none;fillColor=none;align=center;verticalAlign=middle;whiteSpace=wrap;rounded=0;" vertex="1" parent="WIyWlLk6GJQsqaUBKTNV-1">
          <mxGeometry x="619" y="630" width="40" height="20" as="geometry" />
        </mxCell>
        <mxCell id="iqQF5zhkwubuDFz2M-Ki-62" style="edgeStyle=orthogonalEdgeStyle;rounded=0;orthogonalLoop=1;jettySize=auto;html=1;exitX=1;exitY=0.5;exitDx=0;exitDy=0;" edge="1" parent="WIyWlLk6GJQsqaUBKTNV-1" source="iqQF5zhkwubuDFz2M-Ki-63">
          <mxGeometry relative="1" as="geometry">
            <mxPoint x="893" y="640.1428571428571" as="targetPoint" />
          </mxGeometry>
        </mxCell>
        <mxCell id="iqQF5zhkwubuDFz2M-Ki-63" value="" style="rhombus;whiteSpace=wrap;html=1;" vertex="1" parent="WIyWlLk6GJQsqaUBKTNV-1">
          <mxGeometry x="735" y="600" width="118" height="80" as="geometry" />
        </mxCell>
        <mxCell id="iqQF5zhkwubuDFz2M-Ki-64" value="是单引号？" style="text;html=1;strokeColor=none;fillColor=none;align=center;verticalAlign=middle;whiteSpace=wrap;rounded=0;" vertex="1" parent="WIyWlLk6GJQsqaUBKTNV-1">
          <mxGeometry x="763" y="630" width="64" height="20" as="geometry" />
        </mxCell>
        <mxCell id="iqQF5zhkwubuDFz2M-Ki-65" value="Yes" style="text;html=1;strokeColor=none;fillColor=none;align=center;verticalAlign=middle;whiteSpace=wrap;rounded=0;" vertex="1" parent="WIyWlLk6GJQsqaUBKTNV-1">
          <mxGeometry x="547" y="620" width="40" height="20" as="geometry" />
        </mxCell>
        <mxCell id="iqQF5zhkwubuDFz2M-Ki-66" value="Yes" style="text;html=1;strokeColor=none;fillColor=none;align=center;verticalAlign=middle;whiteSpace=wrap;rounded=0;" vertex="1" parent="WIyWlLk6GJQsqaUBKTNV-1">
          <mxGeometry x="850" y="620" width="40" height="20" as="geometry" />
        </mxCell>
        <mxCell id="iqQF5zhkwubuDFz2M-Ki-67" value="" style="rhombus;whiteSpace=wrap;html=1;" vertex="1" parent="WIyWlLk6GJQsqaUBKTNV-1">
          <mxGeometry x="127" y="710" width="120" height="80" as="geometry" />
        </mxCell>
        <mxCell id="iqQF5zhkwubuDFz2M-Ki-68" value="是双引号？" style="text;html=1;strokeColor=none;fillColor=none;align=center;verticalAlign=middle;whiteSpace=wrap;rounded=0;" vertex="1" parent="WIyWlLk6GJQsqaUBKTNV-1">
          <mxGeometry x="152" y="740" width="70" height="20" as="geometry" />
        </mxCell>
        <mxCell id="iqQF5zhkwubuDFz2M-Ki-70" value="No" style="text;html=1;strokeColor=none;fillColor=none;align=center;verticalAlign=middle;whiteSpace=wrap;rounded=0;" vertex="1" parent="WIyWlLk6GJQsqaUBKTNV-1">
          <mxGeometry x="186" y="680" width="40" height="20" as="geometry" />
        </mxCell>
      </root>
    </mxGraphModel>
  </diagram>
</mxfile>
